<svg aria-hidden="true" style="position: absolute; width: 0; height: 0; overflow: hidden;"
  version="1.1" xmlns="http://www.w3.org/2000/svg" xmlns:xlink="http://www.w3.org/1999/xlink">
  <defs>
    <symbol id="icon-close" viewBox="0 0 32 32">
      <path fill="none" stroke="#fff" stroke-width="2" stroke-miterlimit="4" stroke-linecap="butt"
        stroke-linejoin="miter" style="stroke: var(--color1, #fff)" d="M2.519 2l26.963 28"></path>
      <path fill="none" stroke="#fff" stroke-width="2" stroke-miterlimit="4" stroke-linecap="butt"
        stroke-linejoin="miter" style="stroke: var(--color1, #fff)" d="M2 29.481l28-26.963"></path>
    </symbol>
    <symbol id="icon-Burger" viewBox="0 0 32 32">
      <path fill="none" stroke="#d41443" stroke-width="1.6" stroke-miterlimit="4"
        stroke-linecap="butt" stroke-linejoin="miter" style="stroke: var(--color2, #d41443)"
        d="M0 6.4h32"></path>
      <path fill="none" stroke="#d41443" stroke-width="1.6" stroke-miterlimit="4"
        stroke-linecap="butt" stroke-linejoin="miter" style="stroke: var(--color2, #d41443)"
        d="M0 16h32"></path>
      <path fill="none" stroke="#d41443" stroke-width="1.6" stroke-miterlimit="4"
        stroke-linecap="butt" stroke-linejoin="miter" style="stroke: var(--color2, #d41443)"
        d="M0 25.6h32"></path>
    </symbol>
    <symbol id="icon-Vector-1" viewBox="0 0 32 32">
      <path fill="none" stroke="#d41443" stroke-width="6.4" stroke-miterlimit="4"
        stroke-linecap="round" stroke-linejoin="round" style="stroke: var(--color2, #d41443)"
        d="M9.6 3.2l12.8 12.8-12.8 12.8"></path>
    </symbol>
    <symbol id="icon-elipse2-header" viewBox="0 0 32 32">
      <path fill="#ffa5ba" style="fill: var(--color3, #ffa5ba)"
        d="M32 16c0 8.837-7.163 16-16 16s-16-7.163-16-16c0-8.837 7.163-16 16-16s16 7.163 16 16z"></path>
    </symbol>
    <symbol id="icon-elipse-testimonio" viewBox="0 0 32 32">
      <path fill="#d9d9d9" style="fill: var(--color4, #d9d9d9)"
        d="M32 16c0 8.837-7.163 16-16 16s-16-7.163-16-16c0-8.837 7.163-16 16-16s16 7.163 16 16z"></path>
    </symbol>
    <symbol id="icon-ice-cream-header" viewBox="0 0 32 32">
      <path fill="#fff" style="fill: var(--color1, #fff)"
        d="M7.879 16.080c0 2.176-1.728 3.94-3.859 3.94s-3.859-1.764-3.859-3.94c0-2.176 1.728-3.94 3.859-3.94s3.859 1.764 3.859 3.94z"></path>
      <path fill="#d41443" style="fill: var(--color2, #d41443)"
        d="M2.977 12.121c-1.861 0.563-2.977 2.028-2.977 3.88 0 1.513 0.777 2.833 2.055 3.493 0.663 0.338 0.76 0.097 0.146-0.37-0.437-0.354-0.518-0.515-0.518-1.111 0-0.419-0.097-0.757-0.243-0.885-0.291-0.241-0.324-0.869-0.032-1.095 0.113-0.097 0.227-0.419 0.243-0.708 0.081-1.063 1.23-2.061 2.379-2.061s2.298 0.998 2.379 2.061c0.016 0.29 0.129 0.612 0.243 0.708 0.291 0.225 0.259 0.853-0.032 1.095-0.146 0.129-0.243 0.467-0.243 0.885 0 0.596-0.081 0.757-0.518 1.111-0.68 0.531-0.485 0.724 0.275 0.258 1.068-0.66 1.861-2.093 1.861-3.365 0-2.544-2.654-4.604-5.016-3.896z"></path>
      <path fill="#d41443" style="fill: var(--color2, #d41443)"
        d="M3.188 13.988c-0.291 0.129-0.534 0.29-0.534 0.386 0 0.177 0.874 0.499 1.375 0.499s1.375-0.322 1.375-0.499c0-0.193-1.003-0.628-1.408-0.628-0.162 0.016-0.534 0.113-0.809 0.242z"></path>
      <path fill="#d41443" style="fill: var(--color2, #d41443)"
        d="M11.52 14.826c-0.243 0.064-0.291 0.274-0.291 1.433v1.352h1.149l-0.049-1.401c-0.049-1.465-0.113-1.578-0.809-1.384z"></path>
      <path fill="#d41443" style="fill: var(--color2, #d41443)"
        d="M13.414 14.906c-0.534 0.29-0.728 0.644-0.728 1.336 0 0.95 0.518 1.401 1.472 1.336 0.647-0.048 0.712-0.097 0.76-0.499s0.016-0.435-0.485-0.402c-0.518 0.048-0.534 0.016-0.534-0.515s0.032-0.563 0.502-0.515c0.388 0.032 0.534-0.032 0.599-0.274 0.032-0.161 0-0.386-0.097-0.483-0.227-0.225-1.068-0.225-1.489 0.016z"></path>
      <path fill="#d41443" style="fill: var(--color2, #d41443)"
        d="M15.339 14.922c-0.049 0.129-0.065 0.757-0.032 1.417l0.049 1.191h1.052c0.971 0 1.052-0.032 1.1-0.37 0.049-0.306-0.016-0.354-0.518-0.354-0.324 0-0.583-0.081-0.583-0.161 0-0.097 0.227-0.161 0.485-0.161 0.372 0 0.485-0.064 0.485-0.322s-0.113-0.322-0.485-0.322c-0.259 0-0.485-0.080-0.485-0.161 0-0.097 0.21-0.161 0.469-0.161 0.453 0 0.76-0.354 0.566-0.66-0.146-0.241-2.006-0.177-2.103 0.064z"></path>
      <path fill="#d41443" style="fill: var(--color2, #d41443)"
        d="M18.591 14.874c-0.534 0.209-0.744 0.58-0.76 1.256-0.016 1.159 0.453 1.562 1.667 1.449 0.469-0.032 0.55-0.113 0.55-0.451 0-0.354-0.065-0.402-0.518-0.354-0.388 0.032-0.534-0.016-0.615-0.274-0.146-0.499 0.162-0.902 0.68-0.902 0.307 0 0.469-0.097 0.502-0.306 0.113-0.515-0.712-0.757-1.505-0.419z"></path>
      <path fill="#d41443" style="fill: var(--color2, #d41443)"
        d="M20.581 14.809c-0.081 0.064-0.129 0.724-0.129 1.465v1.352l0.518-0.048c0.405-0.032 0.55-0.145 0.631-0.451l0.097-0.402 0.129 0.435c0.097 0.37 0.21 0.451 0.631 0.451 0.696 0 0.777-0.113 0.485-0.676-0.178-0.354-0.21-0.531-0.081-0.66 0.21-0.209 0.227-0.918 0.032-1.223-0.162-0.258-2.103-0.467-2.314-0.242zM21.908 15.679c0 0.177-0.065 0.322-0.162 0.322-0.081 0-0.162-0.145-0.162-0.322s0.081-0.322 0.162-0.322c0.097 0 0.162 0.145 0.162 0.322z"></path>
      <path fill="#d41443" style="fill: var(--color2, #d41443)"
        d="M23.478 14.826c-0.065 0.048-0.113 0.708-0.113 1.449v1.336h1.052c1.019 0 1.052-0.016 1.052-0.402 0-0.338-0.081-0.402-0.485-0.402-0.259 0-0.485-0.081-0.485-0.161 0-0.097 0.178-0.161 0.405-0.161 0.291 0 0.404-0.081 0.404-0.322s-0.113-0.322-0.404-0.322c-0.227 0-0.405-0.081-0.405-0.161 0-0.097 0.227-0.161 0.485-0.161 0.404 0 0.485-0.064 0.485-0.402 0-0.386-0.048-0.402-0.938-0.402-0.518 0-1.003 0.048-1.052 0.113z"></path>
      <path fill="#d41443" style="fill: var(--color2, #d41443)"
        d="M26.746 14.81c-0.291 0.080-1.036 2.222-0.89 2.576 0.129 0.322 0.858 0.29 1.052-0.048 0.146-0.274 0.162-0.274 0.453 0 0.372 0.322 1.181 0.37 1.181 0.064 0-0.097-0.162-0.741-0.372-1.401-0.324-1.063-0.421-1.207-0.76-1.24-0.227 0-0.518 0.016-0.663 0.048zM27.199 16.275c-0.049 0.161-0.081 0.064-0.081-0.193 0-0.274 0.032-0.386 0.081-0.29 0.032 0.113 0.032 0.338 0 0.483z"></path>
      <path fill="#d41443" style="fill: var(--color2, #d41443)"
        d="M29.076 14.826c-0.146 0.048-0.21 0.499-0.21 1.433v1.352h0.469c0.404 0 0.485-0.081 0.55-0.451 0.065-0.419 0.065-0.419 0.194-0.081 0.065 0.209 0.227 0.37 0.34 0.37 0.129 0 0.307-0.161 0.388-0.37 0.129-0.338 0.146-0.338 0.146 0.097 0.016 0.402 0.065 0.451 0.518 0.402l0.502-0.048 0.016-1.336c0.032-1.24 0.016-1.336-0.324-1.417-0.518-0.129-0.955 0.177-1.1 0.773l-0.113 0.531-0.178-0.563c-0.227-0.757-0.566-0.95-1.197-0.692z"></path>
      <path fill="#d41443" style="fill: var(--color2, #d41443)"
        d="M2.265 14.987c-0.049 0.064-0.097 0.274-0.097 0.483 0 0.37 0.016 0.37 1.861 0.37s1.861 0 1.861-0.37c0-0.547-0.146-0.612-0.663-0.354-0.582 0.306-1.812 0.306-2.395 0-0.259-0.129-0.502-0.177-0.566-0.129z"></path>
      <path fill="#d41443" style="fill: var(--color2, #d41443)"
        d="M1.796 16.419c-0.259 0.274 0.178 0.386 1.44 0.386h1.359v0.563c0 0.306 0.081 0.563 0.162 0.563 0.097 0 0.162-0.241 0.162-0.547 0-0.531 0.032-0.563 0.647-0.612 0.356-0.032 0.647-0.129 0.647-0.209 0-0.177-4.239-0.322-4.417-0.145z"></path>
      <path fill="#d41443" style="fill: var(--color2, #d41443)"
        d="M2.168 17.836c0 0.885 0.307 1.063 1.861 1.063s1.861-0.177 1.861-1.063c0-0.386-0.081-0.547-0.243-0.547-0.146 0-0.243 0.145-0.243 0.386 0 0.902-1.23 0.982-1.408 0.097-0.081-0.467-0.129-0.483-0.955-0.483h-0.874v0.547z"></path>
      <path fill="#d41443" style="fill: var(--color2, #d41443)"
        d="M3.171 19.655c0.097 0.515 1.748 0.467 1.748-0.032 0-0.177-0.21-0.241-0.906-0.241-0.76 0-0.89 0.048-0.841 0.274z"></path>
    </symbol>
    <symbol id="icon-icon1-hosismade" viewBox="0 0 32 32">
      <path fill="#ffa5ba" style="fill: var(--color3, #ffa5ba)"
        d="M7.773 0.144c-0.35 0.188-0.553 0.563-0.553 1.006 0.006 0.813 0.209 1.556 0.614 2.2l0.178 0.294-0.338 0.381c-0.381 0.425-0.473 0.581-0.645 1.088-0.141 0.412-0.154 1.162-0.031 1.581 0.43 1.438 1.854 2.269 3.248 1.9 0.473-0.125 0.761-0.281 1.203-0.656l0.374-0.312 0.35 0.175c0.196 0.1 0.528 0.244 0.743 0.325l0.381 0.138v0.7c0 1.106 0.227 1.762 0.81 2.356s1.498 0.9 2.29 0.762c0.565-0.1 1.117-0.381 1.492-0.762 0.583-0.594 0.81-1.25 0.81-2.356v-0.7l0.387-0.138c0.209-0.081 0.54-0.225 0.737-0.325l0.35-0.175 0.375 0.312c0.442 0.375 0.731 0.531 1.203 0.656 1.394 0.369 2.818-0.462 3.248-1.9 0.123-0.419 0.111-1.169-0.031-1.581-0.172-0.506-0.264-0.662-0.645-1.088l-0.338-0.381 0.178-0.294c0.405-0.644 0.608-1.387 0.614-2.2 0-0.444-0.203-0.819-0.553-1.006l-0.264-0.144h-15.926l-0.264 0.144zM22.508 2.1c0 0.019-0.178 0.313-0.399 0.663-0.651 1.031-0.626 1.256 0.239 2.169 0.313 0.331 0.602 0.662 0.645 0.737 0.233 0.463-0.233 1.038-0.749 0.919-0.123-0.025-0.393-0.244-0.786-0.631-0.786-0.775-1.056-0.862-1.658-0.519-0.694 0.4-1.578 0.806-2.008 0.925-0.608 0.175-0.817 0.306-0.976 0.638-0.129 0.256-0.141 0.362-0.141 1.362 0 1.231-0.049 1.431-0.399 1.6-0.252 0.125-0.301 0.125-0.553 0-0.35-0.169-0.399-0.369-0.399-1.6 0-1-0.012-1.106-0.135-1.362-0.166-0.325-0.375-0.463-0.982-0.638-0.528-0.15-1.308-0.494-1.738-0.775-0.405-0.263-0.761-0.362-1.044-0.313-0.184 0.037-0.368 0.181-0.86 0.662-0.405 0.394-0.694 0.625-0.817 0.65-0.51 0.119-0.976-0.463-0.743-0.919 0.043-0.075 0.332-0.406 0.645-0.737 0.866-0.912 0.89-1.138 0.239-2.169-0.221-0.35-0.399-0.644-0.399-0.663 0-0.025 2.929-0.038 6.508-0.038s6.508 0.013 6.508 0.038z"></path>
      <path fill="#ffa5ba" style="fill: var(--color3, #ffa5ba)"
        d="M5.925 13.206c-0.313 0.212-0.485 0.512-0.485 0.844 0 0.225 3.119 16.925 3.229 17.275 0.055 0.194 0.282 0.425 0.522 0.55 0.227 0.125 0.387 0.125 6.809 0.125s6.582 0 6.809-0.125c0.239-0.125 0.467-0.356 0.522-0.55 0.11-0.35 3.229-17.050 3.229-17.275 0-0.331-0.172-0.631-0.485-0.844l-0.209-0.144h-19.732l-0.209 0.144zM24.135 15.481c-0.061 0.5-0.418 1.587-0.682 2.081-1.283 2.375-3.714 3.819-6.729 3.988-2.278 0.131-4.206-0.331-5.82-1.394-0.933-0.612-1.713-1.45-2.265-2.438-0.307-0.544-0.712-1.712-0.774-2.237l-0.043-0.356h16.356l-0.043 0.356zM9.83 21.919c2.634 1.775 6.569 2.244 9.885 1.169 1.105-0.356 2.235-0.956 3.18-1.688 0.276-0.219 0.295-0.219 0.264-0.081-0.018 0.081-0.381 1.994-0.804 4.244s-0.78 4.156-0.798 4.231l-0.031 0.144h-11.051l-0.031-0.144c-0.018-0.075-0.374-1.981-0.798-4.231s-0.786-4.163-0.804-4.244c-0.031-0.137-0.012-0.137 0.264 0.081 0.16 0.125 0.491 0.356 0.724 0.519z"></path>
    </symbol>
    <symbol id="icon-icon2-howismade" viewBox="0 0 32 32">
      <path fill="#ffa5ba" style="fill: var(--color3, #ffa5ba)"
        d="M29.626 21.411c-1.292-0.458-2.382-0.344-3.242 0.018 0.145-0.877 0.47-1.832 1.17-2.481 0.431-0.4 0.456-1.074 0.056-1.505s-1.074-0.456-1.505-0.056c-1.229 1.14-1.706 2.748-1.874 4.081-0.32-0.144-0.673-0.253-1.058-0.311l1.89-9.83c0.060-0.312-0.022-0.634-0.225-0.879s-0.503-0.387-0.821-0.387h-0.204c0.094-0.5 0.141-0.997 0.137-1.47-0.016-1.994-0.903-3.495-2.374-4.017-1.41-0.5-2.59-0.35-3.507 0.066 0.145-0.976 0.494-2.063 1.282-2.794 0.431-0.4 0.456-1.074 0.056-1.505s-1.074-0.456-1.505-0.056c-1.32 1.225-1.815 2.965-1.982 4.386-0.735-0.348-1.644-0.527-2.708-0.33-1.094-1.571-2.613-2.296-4.089-1.942-1.451 0.349-2.358 1.115-2.901 1.962-0.41-0.899-0.712-2.001-0.452-3.036 0.143-0.57-0.203-1.149-0.773-1.292s-1.149 0.203-1.292 0.773c-0.439 1.746 0.095 3.476 0.729 4.758-1.016 0.137-2.117 0.65-3.049 1.866-0.578 0.755-0.773 1.698-0.596 2.7-0.173 0.065-0.329 0.173-0.449 0.318-0.202 0.245-0.285 0.567-0.225 0.879l3.809 19.809c0.096 0.501 0.535 0.864 1.046 0.864h15.237c0.511 0 0.949-0.362 1.046-0.864l0.038-0.195c0.287 0.198 0.596 0.363 0.927 0.487 1.266 0.471 2.447 0.278 3.044 0.118 0.316 0.085 0.795 0.179 1.364 0.179 0.506 0 1.084-0.075 1.68-0.297 2.36-0.879 3.615-3.839 3.596-6.178-0.015-1.904-0.866-3.339-2.276-3.839zM22.674 12.19c-0.49 4.705-4.452 7.91-9.971 7.91s-9.481-3.204-9.971-7.91h19.942zM16.032 7.515c0.184 0.349 0.536 0.567 0.93 0.567s0.746-0.218 0.93-0.567c0.029-0.048 0.29-0.466 0.769-0.777 0.629-0.408 1.35-0.46 2.203-0.157 0.851 0.302 0.952 1.518 0.956 2.027 0.004 0.463-0.064 0.962-0.191 1.453h-7.126c0.236-1.19 0.094-2.492-0.289-3.669 0.377 0.022 0.724 0.137 1.047 0.346 0.479 0.311 0.74 0.729 0.769 0.777zM3.077 8.724c0.55-0.719 1.182-1.068 1.932-1.069h0.002c0.57 0 1.016 0.208 1.066 0.232 0.341 0.189 0.749 0.172 1.079-0.037 0.331-0.211 0.51-0.592 0.481-0.983-0.006-0.077-0.116-1.893 1.983-2.397 0.876-0.211 1.625 0.754 1.906 1.178 0.807 1.22 1.221 3.108 0.777 4.413h-9.349c-0.141-0.443-0.179-0.943 0.122-1.336zM5.851 29.87l-2.111-10.978c0.138 0.133 0.281 0.263 0.427 0.389 2.208 1.901 5.239 2.948 8.535 2.948s6.328-1.047 8.535-2.948c0.052-0.044 0.102-0.090 0.152-0.135l-0.431 2.243c-0.020 0.007-0.041 0.013-0.061 0.021-1.41 0.5-2.261 1.935-2.276 3.839-0.009 1.164 0.297 2.483 0.898 3.622l-0.192 0.999h-13.477zM27.562 29.432c-0.943 0.351-1.881 0.017-1.916 0.005-0.25-0.097-0.518-0.099-0.768-0-0.009 0.004-0.96 0.352-1.917-0.005-1.338-0.498-2.223-2.556-2.21-4.165 0.004-0.466 0.095-1.578 0.858-1.849 0.349-0.124 0.661-0.175 0.939-0.175 1.108 0 1.657 0.812 1.782 1.024 0.184 0.35 0.535 0.569 0.931 0.569s0.747-0.219 0.931-0.569c0.156-0.265 0.977-1.468 2.721-0.849 0.763 0.271 0.854 1.383 0.858 1.849 0.013 1.609-0.872 3.667-2.21 4.166z"></path>
    </symbol>
    <symbol id="icon-icon3-howismade" viewBox="0 0 32 32">
      <path fill="#ffa5ba" stroke="#ffa5ba" stroke-width="0.3077" stroke-miterlimit="4"
        stroke-linecap="butt" stroke-linejoin="miter"
        style="fill: var(--color3, #ffa5ba); stroke: var(--color3, #ffa5ba)"
        d="M2.513 11.16l0 0c0.587 2.696 1.894 5.088 3.953 7.163 1.839 1.86 3.455 2.99 6.008 4.163 0 0 0 0 0.001 0l1.238 0.581v8.47h1.73v-7.901l0.159 0.047c0.229 0.066 0.567 0.066 0.796 0l0.001-0 0.159-0.046v7.901h1.73v-8.481l1.179-0.536c2.469-1.138 4.263-2.372 6.008-4.141l0-0c2.786-2.829 4.217-6.052 4.217-9.561 0.012-3.851-2.010-7-5.213-8.076-0.689-0.24-1.054-0.274-2.316-0.262M2.513 11.16l13.614-8.305-0.098-0.072M2.513 11.16c-0.134-0.615-0.202-1.454-0.205-2.276-0.003-0.82 0.059-1.636 0.194-2.201 0.723-3.189 2.943-5.549 5.82-6.152M2.513 11.16l5.808-10.629M22.163 0.482h0c0 0-0 0-0 0zM22.163 0.482c-0.658 0.006-1.070 0.020-1.444 0.074-0.376 0.054-0.709 0.146-1.208 0.303l-0.002 0c-1.188 0.385-2.356 0.994-3.133 1.632l-0.001 0.001-0.346 0.291M16.029 2.783l-0.543-0.401c-1.672-1.23-3.385-1.829-5.396-1.911l-0.001-0c-0.347-0.012-0.718-0.012-1.036-0.001-0.312 0.010-0.586 0.030-0.733 0.063M16.029 2.783l-7.708-2.251M15.005 4.233l-0-0c-0.238-0.226-0.669-0.537-1.14-0.832-0.47-0.295-0.968-0.566-1.336-0.718-0.347-0.135-1.012-0.328-1.5-0.419-1.975-0.362-3.49 0.022-4.825 1.21l-0.001 0.001c-0.282 0.247-0.581 0.571-0.795 0.844-0.103 0.131-0.183 0.245-0.232 0.33 0.064 0.012 0.147 0.027 0.243 0.044 0.238 0.042 0.56 0.096 0.909 0.154 1.231 0.192 2.186 0.449 3.209 0.942 1.020 0.492 2.103 1.215 3.592 2.33l0.001 0.001c0.605 0.464 1.625 1.059 2.651 1.541h0l0.003 0.001c0.458 0.226 0.898 0.452 1.238 0.636 0.17 0.092 0.316 0.175 0.427 0.242 0.055 0.034 0.104 0.064 0.142 0.091 0.035 0.024 0.072 0.052 0.098 0.080 0.128 0.137 0.234 0.274 0.318 0.447s0.141 0.372 0.182 0.631c0.081 0.512 0.098 1.281 0.098 2.571 0 1.17 0.003 1.784 0.034 2.135 0.015 0.175 0.036 0.271 0.061 0.332 0.022 0.055 0.049 0.089 0.096 0.135 0.246 0.24 0.583 0.23 0.762 0.031l-0-0 0.004-0.004c0.050-0.052 0.097-0.135 0.125-0.456 0.027-0.32 0.033-0.837 0.033-1.723 0-1.173 0.029-1.886 0.159-2.378 0.067-0.251 0.161-0.448 0.292-0.622 0.13-0.172 0.293-0.314 0.488-0.459l0.002-0.001c0.197-0.142 0.368-0.235 0.647-0.308 0.27-0.071 0.643-0.124 1.24-0.193l0.001-0c1.864-0.207 2.941-0.447 4.23-0.937h0c0.405-0.154 0.704-0.268 0.927-0.371 0.225-0.103 0.357-0.188 0.439-0.273 0.076-0.079 0.115-0.168 0.134-0.302 0.020-0.142 0.014-0.324 0.002-0.588h-0l-0-0.003c-0.012-0.46-0.128-1.233-0.256-1.707l-0-0.001c-0.709-2.681-2.921-4.56-5.316-4.56-1.787 0-3.967 0.84-5.314 2.061l-0.001 0.001c-0.22 0.197-0.405 0.352-0.572 0.459s-0.327 0.175-0.495 0.182c-0.17 0.007-0.327-0.050-0.486-0.149-0.156-0.098-0.323-0.242-0.517-0.425zM5.033 4.621c-0.002-0.001-0.003-0.001-0.003-0.001s0.001 0 0.003 0.001zM10.859 8.597l-0.001-0.001c-1.232-0.914-2.577-1.584-3.762-1.879-0.543-0.131-1.235-0.239-1.803-0.295-0.284-0.028-0.533-0.042-0.715-0.040-0.091 0.001-0.16 0.006-0.206 0.015-0.007 0.001-0.013 0.002-0.018 0.004-0.049 0.096-0.1 0.264-0.148 0.496-0.052 0.252-0.095 0.561-0.127 0.893-0.063 0.665-0.077 1.407-0.019 1.947 0.316 2.926 1.588 5.398 4.032 7.743l0.001 0c1.927 1.865 4.325 3.319 7.043 4.235v0l0.002 0.001 0.862 0.305 0.874-0.306c2.542-0.871 5.036-2.326 6.844-4.018 1.246-1.168 1.889-1.964 2.711-3.37l0.001-0.001c0.254-0.428 0.603-1.203 0.874-1.892 0.135-0.344 0.248-0.661 0.32-0.899 0.026-0.086 0.045-0.159 0.058-0.218-0.042 0.011-0.091 0.025-0.145 0.041-0.2 0.059-0.473 0.151-0.767 0.259l-0.001 0c-1.188 0.432-2.967 0.816-4.402 0.944l-0.001 0c-0.021 0.002-0.042 0.004-0.063 0.005-0.323 0.027-0.548 0.045-0.715 0.089-0.166 0.044-0.252 0.106-0.311 0.216-0.067 0.126-0.107 0.328-0.127 0.676-0.018 0.322-0.018 0.746-0.018 1.313 0 0.039 0 0.080 0 0.121 0 1.098-0.014 1.745-0.096 2.184-0.042 0.223-0.102 0.398-0.189 0.553-0.087 0.154-0.196 0.283-0.328 0.417-0.235 0.247-0.47 0.425-0.733 0.54s-0.547 0.164-0.871 0.164c-0.5 0-0.927-0.099-1.284-0.317s-0.63-0.547-0.835-0.983l-0-0c-0.105-0.223-0.164-0.436-0.198-0.864-0.033-0.423-0.042-1.067-0.042-2.156 0-0.906-0.009-1.537-0.031-1.957-0.011-0.21-0.025-0.363-0.042-0.47-0.009-0.053-0.017-0.091-0.025-0.117-0.006-0.018-0.009-0.025-0.010-0.027 0 0 0 0 0 0-0.001-0.001-0.007-0.008-0.023-0.020s-0.039-0.029-0.068-0.048c-0.058-0.037-0.134-0.082-0.225-0.13-0.182-0.097-0.415-0.208-0.654-0.31-1.006-0.42-2.333-1.164-3.138-1.761-0.296-0.219-0.959-0.703-1.48-1.084l-0.001-0.001zM4.336 6.407c-0.002 0.001-0.002 0.001 0-0l-0 0zM4.373 6.369l-0.001 0.002c0-0.001 0.001-0.001 0.001-0.002z"></path>
    </symbol>
    <symbol id="icon-icon-casa-testimonio" viewBox="0 0 32 32">
      <path fill="#d31342" style="fill: var(--color5, #d31342)"
        d="M31.599 15.433c0.58-0.595 0.524-1.507-0.125-2.037l-14.301-11.673c-0.649-0.53-1.69-0.518-2.325 0.025l-14.35 12.27c-0.635 0.543-0.667 1.454-0.069 2.034l0.36 0.35c0.597 0.579 1.562 0.648 2.154 0.154l1.072-0.896v13.116c0 0.805 0.699 1.456 1.561 1.456h5.594c0.862 0 1.561-0.651 1.561-1.456v-9.176h7.135v9.176c-0.012 0.804 0.604 1.455 1.466 1.455h5.928c0.862 0 1.561-0.651 1.561-1.456v-12.93c0 0 0.296 0.242 0.662 0.542s1.131 0.059 1.711-0.536l0.407-0.417z"></path>
    </symbol>
    <symbol id="icon-icon-facebook-footer" viewBox="0 0 32 32">
      <path fill="#fea5bb" style="fill: var(--color6, #fea5bb)"
        d="M16 32c8.837 0 16-7.163 16-16s-7.163-16-16-16c-8.837 0-16 7.163-16 16s7.163 16 16 16z"></path>
      <path fill="#fff" style="fill: var(--color1, #fff)"
        d="M20.446 15.982h-2.61v9.619h-3.955v-9.619h-1.881v-3.38h1.881v-2.187c0-1.564 0.739-4.014 3.99-4.014l2.929 0.012v3.281h-2.125c-0.349 0-0.839 0.175-0.839 0.921v1.989h2.955l-0.346 3.377z"></path>
    </symbol>
    <symbol id="icon-icon-github-footer" viewBox="0 0 32 32">
      <path fill="#fea5bb" style="fill: var(--color6, #fea5bb)"
        d="M32 16c0 8.837-7.163 16-16 16s-16-7.163-16-16c0-8.837 7.163-16 16-16s16 7.163 16 16z"></path>
      <path fill="#fff" style="fill: var(--color1, #fff)"
        d="M16 6.588c-5.169 0-9.412 4.242-9.412 9.412 0 4.411 3.095 8.419 7.206 9.412v-3.114c-0.407 0.089-0.782 0.092-1.197-0.030-0.556-0.164-1.008-0.535-1.344-1.1-0.214-0.361-0.593-0.752-0.988-0.723l-0.097-1.099c0.855-0.073 1.595 0.521 2.034 1.259 0.195 0.328 0.419 0.52 0.708 0.605 0.278 0.082 0.578 0.043 0.926-0.080 0.088-0.698 0.407-0.959 0.648-1.326v-0.001c-2.451-0.366-3.428-1.666-3.816-2.693-0.514-1.363-0.238-3.066 0.671-4.142 0.018-0.021 0.050-0.076 0.037-0.114-0.417-1.258 0.091-2.299 0.11-2.41 0.481 0.142 0.559-0.143 2.089 0.786l0.264 0.159c0.111 0.066 0.076 0.028 0.186 0.020 0.639-0.173 1.312-0.269 1.975-0.278 0.668 0.009 1.337 0.104 2.002 0.285l0.086 0.009c-0.007-0.001 0.023-0.005 0.075-0.036 1.911-1.157 1.842-0.779 2.355-0.946 0.019 0.111 0.519 1.169 0.107 2.411-0.056 0.171 1.657 1.739 0.708 4.256-0.388 1.027-1.365 2.328-3.816 2.693v0.001c0.314 0.479 0.692 0.734 0.69 1.722v3.887c4.111-0.993 7.206-5 7.206-9.412 0-5.169-4.242-9.412-9.412-9.412v0z"></path>
    </symbol>
    <symbol id="icon-icon-telegram-footer" viewBox="0 0 32 32">
      <path fill="#fea5bb" style="fill: var(--color6, #fea5bb)"
        d="M32 16c0 8.837-7.163 16-16 16s-16-7.163-16-16c0-8.837 7.163-16 16-16s16 7.163 16 16z"></path>
      <path fill="#fff" style="fill: var(--color1, #fff)"
        d="M12.867 18.375l-0.318 4.169c0.454 0 0.651-0.182 0.887-0.401l2.13-1.9 4.415 3.017c0.81 0.421 1.38 0.199 1.598-0.695l2.898-12.673c0.257-1.117-0.433-1.554-1.222-1.28l-17.032 6.086c-1.162 0.421-1.145 1.026-0.198 1.3l4.354 1.264 10.115-5.907c0.476-0.294 0.909-0.131 0.553 0.163l-8.182 6.857z"></path>
    </symbol>
  </defs>
</svg>